<svg width="1440" height="923" viewBox="0 0 1440 923" fill="none" xmlns="http://www.w3.org/2000/svg">
<g clip-path="url(#clip0_2690_6378)">
<g clip-path="url(#clip1_2690_6378)">
<path d="M0 0H1440V415H0V0ZM0 739L39.6 727C80.4 715 159.6 691 240 697C320.4 703 399.6 739 480 703C560.4 667 639.6 559 720 523C800.4 487 879.6 523 960 529C1040.4 535 1119.6 511 1200 499C1280.4 487 1359.6 487 1400.4 487H1440V415H1400.4C1359.6 415 1280.4 415 1200 415C1119.6 415 1040.4 415 960 415C879.6 415 800.4 415 720 415C639.6 415 560.4 415 480 415C399.6 415 320.4 415 240 415C159.6 415 80.4 415 39.6 415H0V739ZM0 0H1440V415H0V0ZM0 739L39.6 727C80.4 715 159.6 691 240 697C320.4 703 399.6 739 480 703C560.4 667 639.6 559 720 523C800.4 487 879.6 523 960 529C1040.4 535 1119.6 511 1200 499C1280.4 487 1359.6 487 1400.4 487H1440V415H1400.4C1359.6 415 1280.4 415 1200 415C1119.6 415 1040.4 415 960 415C879.6 415 800.4 415 720 415C639.6 415 560.4 415 480 415C399.6 415 320.4 415 240 415C159.6 415 80.4 415 39.6 415H0V739Z" fill="#2C799A"/>
<path fill-rule="evenodd" clip-rule="evenodd" d="M0 0H1440V415H0V0ZM0 739L39.6 727C80.4 715 159.6 691 240 697C320.4 703 399.6 739 480 703C560.4 667 639.6 559 720 523C800.4 487 879.6 523 960 529C1040.4 535 1119.6 511 1200 499C1280.4 487 1359.6 487 1400.4 487H1440V415H1400.4C1359.6 415 1280.4 415 1200 415C1119.6 415 1040.4 415 960 415C879.6 415 800.4 415 720 415C639.6 415 560.4 415 480 415C399.6 415 320.4 415 240 415C159.6 415 80.4 415 39.6 415H0V739ZM0 0H1440V415H0V0ZM0 739L39.6 727C80.4 715 159.6 691 240 697C320.4 703 399.6 739 480 703C560.4 667 639.6 559 720 523C800.4 487 879.6 523 960 529C1040.4 535 1119.6 511 1200 499C1280.4 487 1359.6 487 1400.4 487H1440V415H1400.4C1359.6 415 1280.4 415 1200 415C1119.6 415 1040.4 415 960 415C879.6 415 800.4 415 720 415C639.6 415 560.4 415 480 415C399.6 415 320.4 415 240 415C159.6 415 80.4 415 39.6 415H0V739Z" fill="#2C799A"/>
<g clip-path="url(#clip2_2690_6378)">
<path d="M1171.38 125.572L1613.04 243.914L1475.02 759L1033.36 640.659L1171.38 125.572Z" fill="#FF7B52"/>
<path d="M697.366 315.085C699.483 307.183 707.605 302.494 715.507 304.611L785.616 323.397C793.518 325.514 798.208 333.636 796.091 341.539L777.305 411.648C775.188 419.55 767.065 424.239 759.163 422.122L689.054 403.336C681.152 401.219 676.463 393.096 678.58 385.194L697.366 315.085Z" fill="#FFCBC5"/>
<path d="M642.486 565.681C644.603 557.779 652.725 553.09 660.627 555.207L707.844 567.858C715.746 569.976 720.435 578.098 718.318 586L705.666 633.216C703.549 641.119 695.426 645.808 687.524 643.691L640.308 631.039C632.406 628.922 627.717 620.799 629.834 612.897L642.486 565.681Z" fill="#FBB52F"/>
<path d="M760.454 537.484C762.571 529.582 770.694 524.892 778.596 527.01L790.042 530.077C797.944 532.194 802.634 540.316 800.516 548.218L797.449 559.665C795.332 567.567 787.21 572.256 779.308 570.139L767.861 567.072C759.959 564.955 755.27 556.832 757.387 548.93L760.454 537.484Z" fill="#FBB52F"/>
</g>
</g>
</g>
<defs>
<clipPath id="clip0_2690_6378">
<rect width="1440" height="923" fill="white"/>
</clipPath>
<clipPath id="clip1_2690_6378">
<rect width="1440" height="819" fill="white"/>
</clipPath>
<clipPath id="clip2_2690_6378">
<rect width="987.036" height="643" fill="white" transform="translate(626 116)"/>
</clipPath>
</defs>
</svg>
