<svg width="131" height="23" viewBox="0 0 131 23" fill="none" xmlns="http://www.w3.org/2000/svg">
<g clip-path="url(#clip0_2690_6673)">
<path d="M20.5969 8.41866C20.5392 8.24885 20.4331 8.09964 20.2916 7.98945C20.1501 7.87926 19.9795 7.81292 19.8007 7.79861L14.5716 7.3831L12.3087 2.37409C12.2367 2.21276 12.1195 2.07573 11.9712 1.97955C11.823 1.88336 11.6501 1.83213 11.4734 1.83203C11.2968 1.83193 11.1238 1.88298 10.9755 1.979C10.8272 2.07502 10.7098 2.21192 10.6375 2.37317L8.37473 7.3831L3.14558 7.79861C2.96989 7.81253 2.80193 7.87677 2.66179 7.98364C2.52165 8.09052 2.41527 8.23551 2.35537 8.40126C2.29548 8.56701 2.2846 8.74651 2.32405 8.91828C2.3635 9.09005 2.4516 9.24682 2.57781 9.36983L6.44212 13.1369L5.07544 19.0549C5.03394 19.234 5.04724 19.4215 5.11361 19.593C5.17999 19.7645 5.29637 19.9121 5.44765 20.0166C5.59894 20.1211 5.77815 20.1777 5.96202 20.1791C6.1459 20.1805 6.32594 20.1266 6.47881 20.0244L11.4731 16.6949L16.4675 20.0244C16.6237 20.1282 16.808 20.1816 16.9955 20.1774C17.183 20.1733 17.3647 20.1119 17.5162 20.0014C17.6678 19.8909 17.7819 19.7367 17.8431 19.5595C17.9044 19.3822 17.9099 19.1904 17.8589 19.01L16.1813 13.1397L20.3419 9.39551C20.6143 9.1497 20.7143 8.76629 20.5969 8.41866Z" fill="#F3CD03"/>
<path d="M47.6118 8.41866C47.5541 8.24885 47.448 8.09964 47.3065 7.98945C47.165 7.87926 46.9944 7.81292 46.8156 7.79861L41.5865 7.3831L39.3236 2.37409C39.2516 2.21276 39.1344 2.07573 38.9861 1.97955C38.8379 1.88336 38.665 1.83213 38.4883 1.83203C38.3116 1.83193 38.1387 1.88298 37.9904 1.979C37.842 2.07502 37.7247 2.21192 37.6524 2.37317L35.3896 7.3831L30.1605 7.79861C29.9848 7.81253 29.8168 7.87677 29.6767 7.98364C29.5365 8.09052 29.4302 8.23551 29.3703 8.40126C29.3104 8.56701 29.2995 8.74651 29.3389 8.91828C29.3784 9.09005 29.4665 9.24682 29.5927 9.36983L33.457 13.1369L32.0903 19.0549C32.0488 19.234 32.0621 19.4215 32.1285 19.593C32.1949 19.7645 32.3113 19.9121 32.4625 20.0166C32.6138 20.1211 32.793 20.1777 32.9769 20.1791C33.1608 20.1805 33.3408 20.1266 33.4937 20.0244L38.488 16.6949L43.4824 20.0244C43.6386 20.1282 43.8229 20.1816 44.0104 20.1774C44.1979 20.1733 44.3796 20.1119 44.5311 20.0014C44.6827 19.8909 44.7968 19.7367 44.858 19.5595C44.9193 19.3822 44.9248 19.1904 44.8738 19.01L43.1962 13.1397L47.3568 9.39551C47.6292 9.1497 47.7292 8.76629 47.6118 8.41866Z" fill="#F3CD03"/>
<path d="M74.623 8.41866C74.5653 8.24885 74.4592 8.09964 74.3177 7.98945C74.1763 7.87926 74.0056 7.81292 73.8268 7.79861L68.5977 7.3831L66.3349 2.37409C66.2628 2.21276 66.1456 2.07573 65.9974 1.97955C65.8492 1.88336 65.6763 1.83213 65.4996 1.83203C65.3229 1.83193 65.1499 1.88298 65.0016 1.979C64.8533 2.07502 64.7359 2.21192 64.6637 2.37317L62.4009 7.3831L57.1717 7.79861C56.996 7.81253 56.828 7.87677 56.6879 7.98364C56.5478 8.09052 56.4414 8.23551 56.3815 8.40126C56.3216 8.56701 56.3107 8.74651 56.3502 8.91828C56.3896 9.09005 56.4777 9.24682 56.6039 9.36983L60.4682 13.1369L59.1016 19.0549C59.0601 19.234 59.0734 19.4215 59.1397 19.593C59.2061 19.7645 59.3225 19.9121 59.4738 20.0166C59.6251 20.1211 59.8043 20.1777 59.9881 20.1791C60.172 20.1805 60.3521 20.1266 60.5049 20.0244L65.4993 16.6949L70.4936 20.0244C70.6498 20.1282 70.8341 20.1816 71.0216 20.1774C71.2091 20.1733 71.3908 20.1119 71.5424 20.0014C71.6939 19.8909 71.808 19.7367 71.8692 19.5595C71.9305 19.3822 71.936 19.1904 71.8851 19.01L70.2074 13.1397L74.368 9.39551C74.6404 9.1497 74.7404 8.76629 74.623 8.41866Z" fill="#F3CD03"/>
<path d="M101.637 8.41866C101.579 8.24885 101.473 8.09964 101.331 7.98945C101.19 7.87926 101.019 7.81292 100.841 7.79861L95.6114 7.3831L93.3485 2.37409C93.2765 2.21276 93.1593 2.07573 93.011 1.97955C92.8628 1.88336 92.6899 1.83213 92.5132 1.83203C92.3365 1.83193 92.1636 1.88298 92.0153 1.979C91.8669 2.07502 91.7496 2.21192 91.6773 2.37317L89.4145 7.3831L84.1854 7.79861C84.0097 7.81253 83.8417 7.87677 83.7016 7.98364C83.5614 8.09052 83.4551 8.23551 83.3952 8.40126C83.3353 8.56701 83.3244 8.74651 83.3638 8.91828C83.4033 9.09005 83.4914 9.24682 83.6176 9.36983L87.4819 13.1369L86.1152 19.0549C86.0737 19.234 86.087 19.4215 86.1534 19.593C86.2198 19.7645 86.3362 19.9121 86.4874 20.0166C86.6387 20.1211 86.8179 20.1777 87.0018 20.1791C87.1857 20.1805 87.3657 20.1266 87.5186 20.0244L92.5129 16.6949L97.5073 20.0244C97.6635 20.1282 97.8478 20.1816 98.0353 20.1774C98.2228 20.1733 98.4045 20.1119 98.556 20.0014C98.7076 19.8909 98.8217 19.7367 98.8829 19.5595C98.9442 19.3822 98.9497 19.1904 98.8987 19.01L97.2211 13.1397L101.382 9.39551C101.654 9.1497 101.754 8.76629 101.637 8.41866Z" fill="#F3CD03"/>
<path d="M114.498 13.1384L113.131 19.0564C113.089 19.2356 113.101 19.4234 113.167 19.5953C113.234 19.7671 113.35 19.9151 113.501 20.0198C113.653 20.1245 113.832 20.1811 114.016 20.1822C114.201 20.1833 114.381 20.1288 114.533 20.0259L119.528 16.6964L124.522 20.0259C124.678 20.1297 124.863 20.1831 125.05 20.1789C125.238 20.1748 125.419 20.1134 125.571 20.0029C125.722 19.8924 125.837 19.7382 125.898 19.5609C125.959 19.3837 125.965 19.1919 125.914 19.0115L124.236 13.1412L128.397 9.39701C128.53 9.27702 128.625 9.12061 128.67 8.94712C128.716 8.77362 128.709 8.59065 128.651 8.42083C128.594 8.25102 128.488 8.1018 128.346 7.99164C128.205 7.88148 128.034 7.81521 127.855 7.80102L122.626 7.3846L120.363 2.37558C120.291 2.21429 120.174 2.07733 120.026 1.98123C119.877 1.88512 119.705 1.83398 119.528 1.83398C119.351 1.83398 119.178 1.88512 119.03 1.98123C118.882 2.07733 118.764 2.21429 118.692 2.37558L116.429 7.3846L111.2 7.8001C111.025 7.81402 110.857 7.87826 110.716 7.98514C110.576 8.09201 110.47 8.237 110.41 8.40275C110.35 8.56851 110.339 8.748 110.379 8.91977C110.418 9.09155 110.506 9.24831 110.632 9.37133L114.498 13.1384ZM117.115 9.17045C117.278 9.15755 117.436 9.10085 117.57 9.00628C117.704 8.91171 117.81 8.78276 117.878 8.63295L119.528 4.98144L121.178 8.63295C121.245 8.78276 121.352 8.91171 121.486 9.00628C121.62 9.10085 121.777 9.15755 121.941 9.17045L125.584 9.45938L122.584 12.1597C122.324 12.3945 122.22 12.7559 122.315 13.0935L123.465 17.1155L120.038 14.8307C119.887 14.7298 119.71 14.6758 119.529 14.6758C119.348 14.6758 119.171 14.7298 119.021 14.8307L115.44 17.2183L116.403 13.0485C116.438 12.8952 116.433 12.7353 116.389 12.5843C116.345 12.4333 116.262 12.2962 116.15 12.1863L113.363 9.46947L117.115 9.17045Z" fill="#F3CD03"/>
</g>
<defs>
<clipPath id="clip0_2690_6673">
<rect width="130.068" height="22.0136" fill="white" transform="translate(0.466064)"/>
</clipPath>
</defs>
</svg>
